<svg xmlns="http://www.w3.org/2000/svg" xmlns:xlink="http://www.w3.org/1999/xlink" viewBox="0 0 400 400"><defs><style>.cls-1{fill:#21e2e2;}.cls-16,.cls-18,.cls-2,.cls-28,.cls-36,.cls-37,.cls-40,.cls-41,.cls-44,.cls-6{fill:none;}.cls-3,.cls-4{isolation:isolate;}.cls-4{fill:#c6e6ff;opacity:0.58;}.cls-5{fill:url(#linear-gradient);}.cls-6{stroke:#3b55ce;stroke-width:0.65px;}.cls-28,.cls-36,.cls-37,.cls-40,.cls-41,.cls-44,.cls-6{stroke-linecap:round;}.cls-16,.cls-18,.cls-28,.cls-36,.cls-37,.cls-40,.cls-41,.cls-44,.cls-6{stroke-miterlimit:10;}.cls-7{fill:url(#linear-gradient-2);}.cls-8{fill:url(#linear-gradient-3);}.cls-9{fill:#d9e8ff;opacity:0.55;}.cls-10{fill:#288ed9;}.cls-11{fill:#7771d5;opacity:0.4;}.cls-11,.cls-13{mix-blend-mode:multiply;}.cls-12{fill:#000e5b;}.cls-13,.cls-39{fill:#85b8ed;}.cls-14{fill:#fffff8;}.cls-15{fill:url(#linear-gradient-4);}.cls-16,.cls-18{stroke:#fff;}.cls-16{stroke-width:0.57px;}.cls-17{fill:#fff;}.cls-18{stroke-width:0.38px;}.cls-19{fill:url(#linear-gradient-5);}.cls-20{fill:url(#linear-gradient-6);}.cls-21{fill:url(#linear-gradient-7);}.cls-22{fill:url(#linear-gradient-8);}.cls-23{fill:url(#linear-gradient-9);}.cls-24{fill:url(#linear-gradient-10);}.cls-25{fill:url(#linear-gradient-11);}.cls-26{fill:url(#linear-gradient-12);}.cls-27{fill:#f59b6b;}.cls-28{stroke:#fffff8;stroke-width:0.87px;}.cls-29{fill:url(#linear-gradient-13);}.cls-30{fill:url(#linear-gradient-14);}.cls-31{fill:#a52f2f;}.cls-32{fill:url(#linear-gradient-15);}.cls-33{fill:url(#linear-gradient-16);}.cls-34{fill:url(#linear-gradient-17);}.cls-35{fill:#4062c1;}.cls-36,.cls-37,.cls-40{stroke:#001c45;}.cls-36{stroke-width:2.45px;}.cls-37{stroke-width:2.39px;}.cls-38{fill:#001c45;}.cls-40{stroke-width:1.89px;}.cls-41{stroke:#ea5e5d;stroke-width:4.29px;}.cls-42{fill:#aaeeed;}.cls-43{clip-path:url(#clip-path);}.cls-44{stroke:#aaeeed;stroke-width:0.58px;}.cls-45{fill:#ff9a8d;}.cls-46{clip-path:url(#clip-path-2);}.cls-47{fill:#1a2e35;}.cls-48{fill:#1f364c;}.cls-49{clip-path:url(#clip-path-3);}.cls-50{fill:url(#linear-gradient-18);}.cls-51{fill:url(#linear-gradient-19);}.cls-52{fill:#f0d2b9;}.cls-53{fill:url(#linear-gradient-20);}.cls-54,.cls-64{fill:#0e71bb;}.cls-55{fill:#379ae3;}.cls-56{fill:url(#linear-gradient-21);}.cls-57{fill:url(#linear-gradient-22);}.cls-58{fill:url(#linear-gradient-23);}.cls-59{fill:url(#linear-gradient-24);}.cls-60{fill:url(#linear-gradient-25);}.cls-61{fill:url(#linear-gradient-26);}.cls-62{fill:url(#linear-gradient-27);}.cls-63{fill:url(#linear-gradient-28);}.cls-64{font-size:11.77px;font-family:Dubai-Bold, Dubai;font-weight:700;}</style><linearGradient id="linear-gradient" x1="90.81" y1="319.45" x2="111.16" y2="319.45" gradientUnits="userSpaceOnUse"><stop offset="0" stop-color="#419ee3"/><stop offset="1" stop-color="#0d79c9"/></linearGradient><linearGradient id="linear-gradient-2" x1="81.98" y1="326.72" x2="108.71" y2="326.72" xlink:href="#linear-gradient"/><linearGradient id="linear-gradient-3" x1="176.88" y1="315.32" x2="248.99" y2="315.32" gradientUnits="userSpaceOnUse"><stop offset="0" stop-color="#44989f"/><stop offset="0.21" stop-color="#39b0b4"/><stop offset="0.52" stop-color="#2ccbcd"/><stop offset="0.8" stop-color="#24dcdd"/><stop offset="1" stop-color="#21e2e2"/></linearGradient><linearGradient id="linear-gradient-4" x1="276.91" y1="208.14" x2="288.73" y2="208.14" gradientUnits="userSpaceOnUse"><stop offset="0" stop-color="#ffbc98"/><stop offset="1" stop-color="#ff9f6c"/></linearGradient><linearGradient id="linear-gradient-5" x1="343.88" y1="293.73" x2="355.71" y2="293.73" xlink:href="#linear-gradient-4"/><linearGradient id="linear-gradient-6" x1="343.88" y1="208.14" x2="355.71" y2="208.14" xlink:href="#linear-gradient-4"/><linearGradient id="linear-gradient-7" x1="276.91" y1="293.73" x2="288.73" y2="293.73" xlink:href="#linear-gradient-4"/><linearGradient id="linear-gradient-8" x1="321.37" y1="315.03" x2="353.74" y2="315.03" xlink:href="#linear-gradient"/><linearGradient id="linear-gradient-9" x1="338.22" y1="322.15" x2="365.46" y2="322.15" xlink:href="#linear-gradient"/><linearGradient id="linear-gradient-10" x1="119.3" y1="291.75" x2="145.38" y2="291.75" xlink:href="#linear-gradient-3"/><linearGradient id="linear-gradient-11" x1="145.38" y1="291.75" x2="155.75" y2="291.75" xlink:href="#linear-gradient-3"/><linearGradient id="linear-gradient-12" x1="155.75" y1="291.75" x2="176.64" y2="291.75" xlink:href="#linear-gradient-4"/><linearGradient id="linear-gradient-13" x1="121.68" y1="263.02" x2="151.32" y2="263.02" xlink:href="#linear-gradient-4"/><linearGradient id="linear-gradient-14" x1="150.92" y1="284.28" x2="156.36" y2="278.83" xlink:href="#linear-gradient-4"/><linearGradient id="linear-gradient-15" x1="152.61" y1="263.02" x2="182.25" y2="263.02" xlink:href="#linear-gradient-3"/><linearGradient id="linear-gradient-16" x1="179.13" y1="263.02" x2="190.02" y2="263.02" xlink:href="#linear-gradient-3"/><linearGradient id="linear-gradient-17" x1="179.13" y1="279.12" x2="190.02" y2="279.12" xlink:href="#linear-gradient-3"/><clipPath id="clip-path"><path class="cls-1" d="M58.31,325.88c-.31,1.54-1.57,5.18-1.21,6.95,1.59,1.34,5,1.43,7.52.79s4.33.66,7.52.85,5.74-.69,6.38-2-4.77-2.54-8.5-3.68a16.87,16.87,0,0,1-6.32-3.34Z"/></clipPath><clipPath id="clip-path-2"><path class="cls-1" d="M25.22,312.75c-1.53.38-5.35.8-6.8,1.89-.53,2,.84,5.1,2.51,7.13s1.26,4.19,2.46,7.15,3.08,4.89,4.54,4.91.24-5.4-.32-9.26a17,17,0,0,1,.3-7.14Z"/></clipPath><clipPath id="clip-path-3"><path class="cls-2" d="M32.85,313.56s20.8-21.12,22.41-22.9,8.13-36.79,8.56-39.42c0,0,6.52-6.64,6.72-12.16l-21.18-10.6c-.9,3.38-1.64,3.5-2.25,12.35-.31,4.51-1.3,23.08-2,45.06a27.79,27.79,0,0,0-5.5,4.4c-2.71,2.64-11,18.94-11,18.94A7.08,7.08,0,0,0,32.85,313.56Z"/></clipPath><linearGradient id="linear-gradient-18" x1="59.71" y1="196.31" x2="70.13" y2="196.31" xlink:href="#linear-gradient"/><linearGradient id="linear-gradient-19" x1="61.64" y1="191.58" x2="71.41" y2="191.58" gradientUnits="userSpaceOnUse"><stop offset="0" stop-color="#efd9c0"/><stop offset="1" stop-color="#ffe7cb"/></linearGradient><linearGradient id="linear-gradient-20" x1="60.95" y1="181.87" x2="77.96" y2="181.87" xlink:href="#linear-gradient-19"/><linearGradient id="linear-gradient-21" x1="54.21" y1="222.58" x2="71.26" y2="222.58" xlink:href="#linear-gradient"/><linearGradient id="linear-gradient-22" x1="59.71" y1="197" x2="69.84" y2="197" xlink:href="#linear-gradient"/><linearGradient id="linear-gradient-23" x1="53.85" y1="224.14" x2="100.56" y2="224.14" xlink:href="#linear-gradient-19"/><linearGradient id="linear-gradient-24" x1="200.32" y1="109.21" x2="264.78" y2="109.21" gradientUnits="userSpaceOnUse"><stop offset="0" stop-color="#2da19f"/><stop offset="1" stop-color="#36dcf2"/></linearGradient><linearGradient id="linear-gradient-25" x1="236.87" y1="84.86" x2="254.46" y2="84.86" gradientUnits="userSpaceOnUse"><stop offset="0" stop-color="#21e2e2"/><stop offset="1" stop-color="#19dbdb"/></linearGradient><linearGradient id="linear-gradient-26" x1="202.96" y1="92.44" x2="229.71" y2="92.44" xlink:href="#linear-gradient-25"/><linearGradient id="linear-gradient-27" x1="209.21" y1="120.06" x2="232.13" y2="120.06" xlink:href="#linear-gradient-25"/><linearGradient id="linear-gradient-28" x1="234.93" y1="108.85" x2="264.78" y2="108.85" xlink:href="#linear-gradient-25"/></defs><g class="cls-3"><g id="Layer_1" data-name="Layer 1"><path class="cls-4" d="M363.77,335.31a25.08,25.08,0,0,0,22.08-12.84c24.58-45.15,16-111.53-17.12-129.34-41.46-22.27,17.18-87.36-37.91-120.48S231.3,114.91,156.66,73.8,24.08,95.09,32.76,139.86c6.06,31.24,22,58.41-19.46,98.38-28.53,27.5-4.9,66.35,12.62,87.92a25.24,25.24,0,0,0,19.58,9.15Z"/><path class="cls-5" d="M110.17,336.19a40,40,0,0,0,.64-14.15c-1.06-7.75-7.91-19.72-14.49-19.32s-6.9,8-2.93,11.71,13.53,12.19,13.36,21.44Z"/><path class="cls-6" d="M96.1,307.13c3.83,2.41,14.2,11.9,12.61,28.93"/><path class="cls-7" d="M108.71,336.06A19.76,19.76,0,0,0,103.34,323c-5.56-5.8-14.63-6.92-18.92-4.12-4,2.58-3.41,8.53,4,8.75,11.28.33,16.3,2,18.37,8.27Z"/><path class="cls-6" d="M86.49,321.64c5.3-1,18.94.5,21.42,14.45"/><path class="cls-8" d="M218.3,322.72V295.47a14.47,14.47,0,0,0-8.43.75c-15.54,5.78-10,20.12-10,20.12s-4.07-1.44-6.46,1.67,0,6.45,0,6.45-16.49,1.26-16.49,11h69.89a27,27,0,0,0,2.09-12.77Z"/><rect class="cls-9" x="220.72" y="119.92" width="107.03" height="198.7" rx="4.8"/><path class="cls-10" d="M325.14,103H223.32a9.27,9.27,0,0,0-9.26,9.26V326.23a9.26,9.26,0,0,0,9.26,9.26H325.14a9.26,9.26,0,0,0,9.26-9.26V112.3A9.27,9.27,0,0,0,325.14,103Zm2.61,210.78a4.8,4.8,0,0,1-4.8,4.8H225.51a4.79,4.79,0,0,1-4.79-4.8V124.72a4.79,4.79,0,0,1,4.79-4.8H323a4.8,4.8,0,0,1,4.8,4.8Z"/><path class="cls-11" d="M223.32,335.49H325.14a9.26,9.26,0,0,0,9.26-9.26V112.3a9.18,9.18,0,0,0-2.13-5.89l-7.2,14a4.79,4.79,0,0,1,2.68,4.3v189.1a4.8,4.8,0,0,1-4.8,4.8H225.51a4.75,4.75,0,0,1-2-.44l-7.23,14.07A9.25,9.25,0,0,0,223.32,335.49Z"/><path class="cls-12" d="M268.84,114.58a3.1,3.1,0,1,1,3.1-3.1A3.1,3.1,0,0,1,268.84,114.58Z"/><path class="cls-12" d="M293.08,111.48h0a1.88,1.88,0,0,0-1.88-1.88H278.87a1.88,1.88,0,0,0-1.87,1.88h0a1.88,1.88,0,0,0,1.87,1.88H291.2A1.88,1.88,0,0,0,293.08,111.48Z"/><rect class="cls-13" x="232.81" y="141.09" width="58.03" height="58.03" rx="1.9"/><rect class="cls-14" x="230.7" y="138.98" width="58.03" height="58.03" rx="1.9"/><rect class="cls-13" x="278.09" y="203.14" width="11.82" height="12.32" rx="1.14"/><rect class="cls-15" x="276.91" y="201.98" width="11.82" height="12.32" rx="1.14"/><polyline class="cls-16" points="283.79 211.94 280.02 211.94 280.02 205.58 285.63 205.58 285.63 210.09"/><circle class="cls-17" cx="281.47" cy="206.69" r="0.39"/><path class="cls-17" d="M283.78,206.69a.4.4,0,1,1,.4.39A.39.39,0,0,1,283.78,206.69Z"/><path class="cls-18" d="M281.47,206.46V205a1.35,1.35,0,0,1,1.35-1.35h0a1.35,1.35,0,0,1,1.36,1.35v1.43"/><line class="cls-16" x1="285.63" y1="211.95" x2="285.63" y2="210.58"/><line class="cls-16" x1="285.63" y1="213.31" x2="285.63" y2="211.95"/><line class="cls-16" x1="285.63" y1="211.95" x2="284.26" y2="211.95"/><line class="cls-16" x1="287" y1="211.95" x2="285.63" y2="211.95"/><rect class="cls-13" x="299.78" y="226.68" width="58.03" height="58.03" rx="1.9"/><rect class="cls-14" x="297.67" y="224.57" width="58.03" height="58.03" rx="1.9"/><rect class="cls-13" x="345.07" y="288.73" width="11.82" height="12.32" rx="1.14"/><rect class="cls-19" x="343.88" y="287.57" width="11.82" height="12.32" rx="1.14"/><polyline class="cls-16" points="350.75 297.54 346.99 297.54 346.99 291.17 352.6 291.17 352.6 295.69"/><path class="cls-17" d="M348.05,292.28a.39.39,0,0,1,.78,0,.39.39,0,1,1-.78,0Z"/><path class="cls-17" d="M350.75,292.28a.39.39,0,0,1,.4-.39.38.38,0,0,1,.39.39.39.39,0,0,1-.39.4A.4.4,0,0,1,350.75,292.28Z"/><path class="cls-18" d="M348.44,292.05v-1.43a1.35,1.35,0,0,1,1.35-1.35h0a1.35,1.35,0,0,1,1.36,1.35v1.43"/><line class="cls-16" x1="352.6" y1="297.54" x2="352.6" y2="296.17"/><line class="cls-16" x1="352.6" y1="298.9" x2="352.6" y2="297.54"/><line class="cls-16" x1="352.6" y1="297.54" x2="351.23" y2="297.54"/><line class="cls-16" x1="353.96" y1="297.54" x2="352.6" y2="297.54"/><rect class="cls-13" x="299.78" y="141.09" width="58.03" height="58.03" rx="1.9"/><rect class="cls-14" x="297.67" y="138.98" width="58.03" height="58.03" rx="1.9"/><rect class="cls-13" x="345.07" y="203.14" width="11.82" height="12.32" rx="1.14"/><rect class="cls-20" x="343.88" y="201.98" width="11.82" height="12.32" rx="1.14"/><polyline class="cls-16" points="350.75 211.94 346.99 211.94 346.99 205.58 352.6 205.58 352.6 210.09"/><circle class="cls-17" cx="348.44" cy="206.69" r="0.39"/><circle class="cls-17" cx="351.15" cy="206.69" r="0.39"/><path class="cls-18" d="M348.44,206.46V205a1.35,1.35,0,0,1,1.35-1.35h0a1.35,1.35,0,0,1,1.36,1.35v1.43"/><line class="cls-16" x1="352.6" y1="211.95" x2="352.6" y2="210.58"/><line class="cls-16" x1="352.6" y1="213.31" x2="352.6" y2="211.95"/><line class="cls-16" x1="352.6" y1="211.95" x2="351.23" y2="211.95"/><line class="cls-16" x1="353.96" y1="211.95" x2="352.6" y2="211.95"/><rect class="cls-13" x="232.81" y="226.68" width="58.03" height="58.03" rx="1.9"/><rect class="cls-14" x="230.7" y="224.57" width="58.03" height="58.03" rx="1.9"/><rect class="cls-13" x="278.09" y="288.73" width="11.82" height="12.32" rx="1.14"/><rect class="cls-21" x="276.91" y="287.57" width="11.82" height="12.32" rx="1.14"/><polyline class="cls-16" points="283.79 297.54 280.02 297.54 280.02 291.17 285.63 291.17 285.63 295.69"/><path class="cls-17" d="M281.08,292.28a.39.39,0,0,1,.78,0,.39.39,0,1,1-.78,0Z"/><path class="cls-17" d="M283.78,292.28a.4.4,0,0,1,.79,0,.4.4,0,1,1-.79,0Z"/><path class="cls-18" d="M281.47,292.05v-1.43a1.35,1.35,0,0,1,1.35-1.35h0a1.35,1.35,0,0,1,1.36,1.35v1.43"/><line class="cls-16" x1="285.63" y1="297.54" x2="285.63" y2="296.17"/><line class="cls-16" x1="285.63" y1="298.9" x2="285.63" y2="297.54"/><line class="cls-16" x1="285.63" y1="297.54" x2="284.26" y2="297.54"/><line class="cls-16" x1="287" y1="297.54" x2="285.63" y2="297.54"/><path class="cls-22" d="M326.5,335.28s-5.92-2.7-5-6.87,5.69-3.73,5-7-3.81-8.42-.74-12.16,8.19-1.49,8.83-7.28c.51-4.67,2.67-8,6.84-7,3.87.9,6.75,3.89,6.82,11,.08,7.58,5.42,5.45,5.49,11s-4.42,5.63-6.17,9.4c-.82,1.78,1.33,8-5,8.89Z"/><path class="cls-6" d="M341.23,298.88s2.46,21.58-8.37,37.46"/><path class="cls-23" d="M338.34,335.28s-.94-5.15,2.56-7.25,7.06-3.72,6.67-7.1.57-7.36,6.17-7.44c3.46,0,2.16-3.69,5.67-4.42,2.14-.44,3.55,1.79,3.82,4,.32,2.5-1.1,4.95.52,7,2.1,2.63,3,7.54-1.56,8.94s-.49,5.67-6.64,6.31Z"/><path class="cls-6" d="M359.62,312.46c-.25,6.72-5.88,18.78-14.43,23.88"/><polygon class="cls-24" points="119.3 281.56 145.38 281.56 145.38 301.95 125.63 301.95 119.3 281.56"/><rect class="cls-25" x="145.38" y="281.55" width="10.37" height="20.39"/><rect class="cls-26" x="155.75" y="281.55" width="20.89" height="20.39"/><polygon class="cls-27" points="186.04 301.95 176.64 301.95 176.64 281.56 190.02 281.56 186.04 301.95"/><path class="cls-28" d="M137,247.64V241.1a6.26,6.26,0,0,1,6.26-6.26h0a6.27,6.27,0,0,1,6.26,6.26v6.54"/><polygon class="cls-29" points="151.32 244.49 124.79 244.49 121.67 281.56 148.2 281.56 151.32 244.49"/><polygon class="cls-27" points="155.97 244.49 151.32 244.49 148.2 281.56 152.33 281.56 154.96 281.56 159.08 281.56 155.97 244.49"/><polygon class="cls-30" points="148.2 281.56 153.64 276.68 159.08 281.56 148.2 281.56"/><path class="cls-31" d="M130.68,248.13a1.09,1.09,0,1,1,1.09,1.09A1.08,1.08,0,0,1,130.68,248.13Z"/><path class="cls-31" d="M143.21,248.13a1.09,1.09,0,0,1,2.17,0,1.09,1.09,0,1,1-2.17,0Z"/><path class="cls-28" d="M131.77,247.64V241.1a6.26,6.26,0,0,1,6.26-6.26h0a6.26,6.26,0,0,1,6.26,6.26v6.54"/><path class="cls-28" d="M167.88,247.64V241.1a6.26,6.26,0,0,1,6.26-6.26h0a6.26,6.26,0,0,1,6.26,6.26v6.54"/><polygon class="cls-32" points="182.25 244.49 155.72 244.49 152.61 281.56 179.13 281.56 182.25 244.49"/><polygon class="cls-33" points="186.9 244.49 182.25 244.49 179.13 281.56 183.26 281.56 185.89 281.56 190.02 281.56 186.9 244.49"/><polygon class="cls-34" points="179.13 281.56 184.58 276.68 190.02 281.56 179.13 281.56"/><path class="cls-35" d="M161.62,248.13a1.09,1.09,0,0,1,2.17,0,1.09,1.09,0,1,1-2.17,0Z"/><path class="cls-35" d="M174.14,248.13a1.09,1.09,0,1,1,1.09,1.09A1.08,1.08,0,0,1,174.14,248.13Z"/><path class="cls-28" d="M162.7,247.64V241.1a6.27,6.27,0,0,1,6.26-6.26h0a6.27,6.27,0,0,1,6.27,6.26v6.54"/><path class="cls-36" d="M96.34,244.35h6a6.46,6.46,0,0,1,6.14,4.45l16.74,51.09a3.07,3.07,0,0,0,2.92,2.11H184.2a3.08,3.08,0,0,0,3-2.56l6.61-40.12h-82"/><path class="cls-37" d="M180,302H140.65A22,22,0,0,0,118.6,324h58.84"/><path class="cls-38" d="M123.46,331a4.54,4.54,0,1,1,4.54,4.54A4.54,4.54,0,0,1,123.46,331Z"/><path class="cls-39" d="M127.36,325.33a8.2,8.2,0,0,1-1.3,5.39c-1.28,1.83,1.66,3,4.62,1.19,3.52-2.12,4.5-6.58,4.5-6.58Z"/><path class="cls-38" d="M127,331a1,1,0,1,1,1,1A1,1,0,0,1,127,331Z"/><path class="cls-38" d="M155.22,331a4.55,4.55,0,1,1,4.54,4.54A4.54,4.54,0,0,1,155.22,331Z"/><path class="cls-39" d="M159.12,325.33a8.2,8.2,0,0,1-1.3,5.39c-1.28,1.83,1.67,3,4.62,1.19,3.52-2.12,4.5-6.58,4.5-6.58Z"/><path class="cls-38" d="M158.8,331a1,1,0,1,1,1,1A1,1,0,0,1,158.8,331Z"/><line class="cls-40" x1="116.56" y1="273.59" x2="191.48" y2="273.59"/><line class="cls-40" x1="121.23" y1="287.86" x2="189.13" y2="287.86"/><line class="cls-41" x1="100.21" y1="244.35" x2="90.93" y2="244.35"/><path class="cls-42" d="M78.52,332.47c.28.53.06,1.59-2,2.47s-6,.51-7.47.21a9.2,9.2,0,0,0-4.71-.27c-2.25.47-5.94.27-7.06-.68-.39-.45-.13-1.37-.13-1.37Z"/><path class="cls-1" d="M58.31,325.88c-.31,1.54-1.57,5.18-1.21,6.95,1.59,1.34,5,1.43,7.52.79s4.33.66,7.52.85,5.74-.69,6.38-2-4.77-2.54-8.5-3.68a16.87,16.87,0,0,1-6.32-3.34Z"/><g class="cls-43"><path class="cls-44" d="M65,328.86a7.06,7.06,0,0,1,1.75-2.78"/><path class="cls-44" d="M67.8,330a7.06,7.06,0,0,1,1.75-2.78"/><path class="cls-44" d="M70.63,331.11a7.06,7.06,0,0,1,1.75-2.78"/></g><path class="cls-45" d="M58.31,319.71v6.17a2.74,2.74,0,0,1,1,.58c.3.35.71,1.52,1.21,1.54,2,.08,3.17-2.55,3.17-2.55l.75-5.6Z"/><path class="cls-42" d="M27.93,333.83c-.36.48-1.41.74-3.12-.79s-3-5.16-3.39-6.66A9.21,9.21,0,0,0,19.65,322c-1.39-1.83-2.79-5.25-2.41-6.67.23-.54,1.18-.7,1.18-.7Z"/><path class="cls-1" d="M25.22,312.75c-1.53.38-5.35.8-6.8,1.89-.53,2,.84,5.1,2.51,7.13s1.26,4.19,2.46,7.15,3.08,4.89,4.54,4.91.24-5.4-.32-9.26a17,17,0,0,1,.3-7.14Z"/><g class="cls-46"><path class="cls-44" d="M25.37,320a7,7,0,0,1,3.27.39"/><path class="cls-44" d="M25.57,323.08a7.13,7.13,0,0,1,3.27.39"/><path class="cls-44" d="M25.77,326.13a7.08,7.08,0,0,1,3.27.38"/></g><path class="cls-45" d="M28.64,309.23l-3.42,3.52a2.69,2.69,0,0,1-.09,1.16c-.19.42-1.07,1.29-.87,1.75.78,1.84,3.65,1.77,3.65,1.77l4.94-3.87Z"/><path class="cls-47" d="M70.22,231.86c-6.91,0-12,.52-12,.52-2.2,1-6,6-7.11,9.18s-.66,8.51-.08,11.25c3.24,15.28,8.66,24.07,9.92,30.13.77,3.7-2.9,1.71-2.9,11.1,0,8.4-.11,32-.11,32a8.07,8.07,0,0,0,6,.48s5.6-35.27,6.17-38.65c.92-5.48,1.24-7.78,1.34-17.26C71.55,257.31,70.22,231.86,70.22,231.86Z"/><path class="cls-48" d="M28.1,318.43s25.55-26,27.16-27.77,8.13-36.79,8.56-39.42c0,0,6.52-6.64,6.72-12.16l-21.18-10.6c-.9,3.38-1.64,3.5-2.25,12.35-.31,4.51-1.3,23.08-2,45.06a27.79,27.79,0,0,0-5.5,4.4c-2.71,2.64-16.11,23.81-16.11,23.81A8.5,8.5,0,0,0,28.1,318.43Z"/><path class="cls-50" d="M69.77,196.24c.45.48.59,1.4-.2,4.22l-9.86-8.3Z"/><polygon class="cls-51" points="61.65 192.16 68.83 198.67 71.41 191.92 64.39 184.49 61.65 192.16"/><path class="cls-52" d="M70.28,194.88s-7-5.31-5.89-10.39l7,7.43Z"/><path class="cls-53" d="M64.41,184.49a18.32,18.32,0,0,0,.39,2c.24.87,5.84,5.21,7.45,5.88s3.92.95,5-4.73,1.06-10.9-2-14.47-9-2.27-12.24.66S60.28,184.43,64.41,184.49Z"/><path class="cls-54" d="M64.41,184.49l-1.07,2.93s-1.2-.48-2.24-2.93c-1.15-2.69-3.32-7.33-2.33-9.61a5.54,5.54,0,0,1,4.27-3c.62-.12.83,0,1.09-.51a6.21,6.21,0,0,1,2.4-3,6.46,6.46,0,0,1,3.16-.94,18.64,18.64,0,0,1,4.07.49,26.88,26.88,0,0,0,8.35.05.32.32,0,0,1,.43.4c-.24,2.36-1.94,3.6-4,4.33,0,0,3.27,3,.46,3.73s-9.63-1.34-9.63-1.34,3,2.24,1.74,2.91-5.51-1-5.51-1l-.08,2.35s-1.62-1-2.9-.16C61.05,180.28,61.76,184.52,64.41,184.49Z"/><path class="cls-55" d="M68.77,199.78s1-2.44.57-3.09c-1.47-2.14-6.27-8.46-6.94-7.85a41.6,41.6,0,0,0-2.69,3.32Z"/><path class="cls-55" d="M69.57,200.46c.62,2.83.56,7.51,1,17.42.25,6.38.89,24.88.89,24.88s-4.88,3.2-13.08,2.55c-7.84-.63-11.22-4.48-11.22-4.48s.82-26,3.39-36.27c3.81-10.56,9.21-12.4,9.21-12.4Z"/><path class="cls-56" d="M71,230.43,54.21,206.66c.56,3.85,8.93,25,8.93,25l1.36-.12s1.68,3.9,2.41,5.06c.48.76,3,1.46,4.35,1.89C71.18,236.27,71.08,233.39,71,230.43Z"/><path class="cls-57" d="M59.71,192.16l9.06,7.62.8.68a1.89,1.89,0,0,1,.23,1.37Z"/><path class="cls-52" d="M63.26,180.16a1.65,1.65,0,0,1,1.47.16c.14.11-.09.34-.23.29-.75-.28-1.66-.31-2,.56,0,.05-.06,0,0,0A1.21,1.21,0,0,1,63.26,180.16Z"/><path class="cls-52" d="M63.61,180.23c.08,0,.27.16.25.22a1.13,1.13,0,0,0-.41.36,1.4,1.4,0,0,0-.18.85,1.53,1.53,0,0,0,1.21,1.45s0,0,0,0a1.45,1.45,0,0,1-1.5-1.07A1.54,1.54,0,0,1,63.61,180.23Z"/><path class="cls-58" d="M53.9,204.57c-.82-4.62,8-7.54,10.45-1.65s8.56,25.65,8.56,25.65S91,240,92.76,239.78c2.42-.23,8.47,6.36,7.74,7.4s-3.78,1.88-5.93,1.27c-1.79-.51-3.51-3.71-4.2-4.24-3.49-1.17-20.22-6.7-22.45-8.63S54.44,207.58,53.9,204.57Z"/><path class="cls-55" d="M63.71,200.66A63.29,63.29,0,0,1,67,209.39c1,3.45,5.51,17.84,5.51,17.84s-2.93,3.63-7.18,4c0,0-3.34-6.82-5.37-11s-5.45-12.59-6.31-15.08,1.92-6.82,3.59-7.17S62.56,198.08,63.71,200.66Z"/><circle class="cls-59" cx="232.55" cy="109.21" r="32.23"/><path class="cls-60" d="M253.39,88.65h0a2.37,2.37,0,0,1-1.81.36l-4.43-.88-.29-.08-2.53-.84a2.38,2.38,0,0,0-1.35-.06l-3.08.78a2.39,2.39,0,0,1-1.35-.06h0a2.4,2.4,0,0,1-1.39-3.36l.31-.63a2.4,2.4,0,0,1,2.16-1.33H242a2.36,2.36,0,0,0,1.08-.26l2.75-1.37a2.42,2.42,0,0,1,2.22,0,31.78,31.78,0,0,1,5.6,3.88A2.42,2.42,0,0,1,253.39,88.65Z"/><path class="cls-61" d="M229.61,84.7l-.09.25a1.93,1.93,0,0,1-1.23,1.23l-1.73.58a1.9,1.9,0,0,0-1.05.84l-2.71,4.52a2,2,0,0,1-.67.67l-4.81,2.88a1.74,1.74,0,0,1-.72.26l-5.72.82a2,2,0,0,0-1.67,1.93v.84a1.91,1.91,0,0,0,.57,1.37l1.08,1.09a2,2,0,0,1,.57,1.37h0a1.94,1.94,0,0,1-3,1.62l-.3-.2-2.78-1.85a2,2,0,0,1-.77-1l-1.49-4.47a2,2,0,0,1,.08-1.43A32.2,32.2,0,0,1,219.5,79.74a2,2,0,0,1,1.87.16l1.94,1.29a1.94,1.94,0,0,0,.76.31l4,.66A2,2,0,0,1,229.61,84.7Z"/><path class="cls-62" d="M232.09,115.93l-.54,2.73a1.89,1.89,0,0,1-.52,1l-3.48,3.48a1.89,1.89,0,0,0-.56,1.34v1.6a1.89,1.89,0,0,1-.76,1.52l-2.93,2.2a1.89,1.89,0,0,0-.75,1.51v2a1.9,1.9,0,0,1-2.5,1.8h0a1.93,1.93,0,0,1-1.17-1.1l-1.76-4.4a1.85,1.85,0,0,1-.13-.7v-9.2a1.9,1.9,0,0,0-1.53-1.86l-3.12-.62a2,2,0,0,1-1.33-1l-1.6-3.22a1.9,1.9,0,0,1-.2-.85V110a1.93,1.93,0,0,1,.55-1.34l1.67-1.67,1.47-1.47a1.89,1.89,0,0,1,3,.49l.52,1a1.89,1.89,0,0,0,1.7,1h5.53a1.88,1.88,0,0,1,1.63.93l2.23,3.71a1.9,1.9,0,0,0,1.63.92h1A1.9,1.9,0,0,1,232.09,115.93Z"/><path class="cls-63" d="M261.72,95.51A32.2,32.2,0,0,1,260.65,125a2.53,2.53,0,0,1-4,.53h0a2.52,2.52,0,0,1-.75-1.8v-2.79a2.55,2.55,0,0,0-.27-1.14l-2-3.91-2-3.9a2.68,2.68,0,0,1-.26-1.14v-2.48a2.54,2.54,0,0,0-1.14-2.12l-1.26-.84a2.56,2.56,0,0,0-2-.36l-2.52.63a2.54,2.54,0,0,1-1.63-.13l-5.67-2.43a2.55,2.55,0,0,1-1.52-2L235,96a2.59,2.59,0,0,1,.72-2.17l1.69-1.68a2.55,2.55,0,0,1,1.8-.75h4.25a2.55,2.55,0,0,1,2.12,1.14l.86,1.28a2.57,2.57,0,0,0,1.7,1.1l4.94.82a2.65,2.65,0,0,0,1.25-.1l4.3-1.49A2.55,2.55,0,0,1,261.72,95.51Z"/><path class="cls-17" d="M246.72,288.55l.24,10.06-1.29,0-.25-10.06Z"/><path class="cls-17" d="M249,288.63a13.35,13.35,0,0,1,2.49-.27,4.17,4.17,0,0,1,2.93.75,2.55,2.55,0,0,1,.83,1.89,2.62,2.62,0,0,1-1.83,2.61v.05a2.52,2.52,0,0,1,1.53,2,15.74,15.74,0,0,0,.84,2.74l-1.34,0a12.58,12.58,0,0,1-.73-2.38c-.33-1.38-.88-1.89-2.06-1.91l-1.23,0,.11,4.36-1.3,0Zm1.41,4.55,1.33,0c1.38,0,2.25-.82,2.22-2,0-1.3-1-1.84-2.36-1.82a4.84,4.84,0,0,0-1.28.15Z"/><path class="cls-17" d="M257,288.44a13.33,13.33,0,0,1,2.48-.27,4,4,0,0,1,2.93.75,2.49,2.49,0,0,1,.84,1.89,2.65,2.65,0,0,1-1.83,2.61v0a2.51,2.51,0,0,1,1.52,2,16.74,16.74,0,0,0,.85,2.74l-1.35,0a13.65,13.65,0,0,1-.73-2.39c-.33-1.38-.88-1.89-2.06-1.9l-1.22,0,.11,4.35-1.3,0Zm1.41,4.54,1.32,0c1.39,0,2.25-.81,2.23-2,0-1.3-1-1.84-2.36-1.83a5.81,5.81,0,0,0-1.28.15Z"/><path class="cls-17" d="M306.82,288.88l.24,10.05-1.3,0-.24-10Z"/><path class="cls-17" d="M309.09,289a13.35,13.35,0,0,1,2.49-.27,4.17,4.17,0,0,1,2.93.75,2.52,2.52,0,0,1,.83,1.89,2.63,2.63,0,0,1-1.83,2.61V294a2.52,2.52,0,0,1,1.53,2,15.74,15.74,0,0,0,.84,2.74l-1.34,0a12.85,12.85,0,0,1-.73-2.38c-.33-1.38-.88-1.89-2.06-1.91l-1.23,0,.11,4.36-1.3,0Zm1.41,4.55,1.33,0c1.38,0,2.25-.81,2.22-2s-1-1.84-2.36-1.82a4.84,4.84,0,0,0-1.28.15Z"/><path class="cls-17" d="M317.12,288.76a14.24,14.24,0,0,1,2.48-.27,4.09,4.09,0,0,1,2.93.76,2.49,2.49,0,0,1,.84,1.89,2.65,2.65,0,0,1-1.83,2.61v0a2.51,2.51,0,0,1,1.52,2,16.07,16.07,0,0,0,.85,2.74l-1.35,0a13.65,13.65,0,0,1-.73-2.39c-.33-1.38-.88-1.89-2.06-1.9l-1.22,0,.1,4.35-1.29,0Zm1.4,4.55,1.33,0c1.39,0,2.25-.82,2.22-2,0-1.3-1-1.85-2.35-1.83a5.81,5.81,0,0,0-1.28.15Z"/><path class="cls-17" d="M306,203.29l.24,10.05-1.3,0-.24-10.05Z"/><path class="cls-17" d="M308.25,203.37a13.35,13.35,0,0,1,2.49-.27,4.12,4.12,0,0,1,2.93.75,2.52,2.52,0,0,1,.83,1.89,2.63,2.63,0,0,1-1.83,2.61v0a2.54,2.54,0,0,1,1.53,2,15.74,15.74,0,0,0,.84,2.74l-1.34,0a12.85,12.85,0,0,1-.73-2.38c-.33-1.38-.88-1.89-2.06-1.91l-1.23,0,.11,4.36-1.3,0Zm1.41,4.55,1.33,0c1.38,0,2.25-.81,2.22-2s-1-1.84-2.36-1.82a4.84,4.84,0,0,0-1.28.15Z"/><path class="cls-17" d="M316.28,203.17a13.33,13.33,0,0,1,2.48-.27,4.14,4.14,0,0,1,2.93.75,2.52,2.52,0,0,1,.84,1.89,2.66,2.66,0,0,1-1.83,2.62v0a2.49,2.49,0,0,1,1.52,2,16.07,16.07,0,0,0,.85,2.74l-1.35,0a13.65,13.65,0,0,1-.73-2.39c-.33-1.38-.88-1.89-2.06-1.9l-1.22,0,.1,4.35-1.29,0Zm1.4,4.55,1.33,0c1.39,0,2.25-.82,2.22-2s-1-1.84-2.35-1.82a5.81,5.81,0,0,0-1.28.15Z"/><path class="cls-17" d="M247.88,203.29l.25,10.05-1.3,0-.24-10.05Z"/><path class="cls-17" d="M250.16,203.37a13.33,13.33,0,0,1,2.48-.27,4.09,4.09,0,0,1,2.93.75,2.49,2.49,0,0,1,.84,1.89,2.63,2.63,0,0,1-1.83,2.61v0a2.51,2.51,0,0,1,1.52,2,16.4,16.4,0,0,0,.85,2.74l-1.35,0a13.73,13.73,0,0,1-.73-2.38c-.33-1.38-.88-1.89-2.06-1.91l-1.22,0,.11,4.36-1.3,0Zm1.41,4.55,1.32,0c1.39,0,2.25-.81,2.22-2s-1-1.84-2.35-1.82a4.77,4.77,0,0,0-1.28.15Z"/><path class="cls-17" d="M258.18,203.17a13.45,13.45,0,0,1,2.49-.27,4.14,4.14,0,0,1,2.93.75,2.48,2.48,0,0,1,.83,1.89,2.64,2.64,0,0,1-1.83,2.62v0a2.48,2.48,0,0,1,1.53,2,15.44,15.44,0,0,0,.84,2.74l-1.34,0a12.78,12.78,0,0,1-.73-2.39c-.33-1.38-.88-1.89-2.06-1.9l-1.22,0,.1,4.35-1.3,0Zm1.41,4.55,1.33,0c1.39,0,2.25-.82,2.22-2s-1-1.84-2.36-1.82a6,6,0,0,0-1.28.15Z"/><text class="cls-64" transform="translate(248.99 258.02)">sch.ir</text><text class="cls-64" transform="translate(317.02 258.02)">gov.ir</text><text class="cls-64" transform="translate(315.88 171.01)">org.ir</text><text class="cls-64" transform="translate(249.86 171.01)">co.ir</text></g></g></svg>